<?xml version="1.0" encoding="UTF-8" standalone="no"?>
<!-- Created with Inkscape (http://www.inkscape.org/) -->

<svg
   width="703.70343"
   height="968.03937"
   viewBox="0 0 186.1882 256.12708"
   version="1.1"
   id="svg1"
   xml:space="preserve"
   xmlns:xlink="http://www.w3.org/1999/xlink"
   xmlns="http://www.w3.org/2000/svg"
   xmlns:svg="http://www.w3.org/2000/svg"><defs
     id="defs1"><linearGradient
       id="linearGradient9"><stop
         style="stop-color:#a241f6;stop-opacity:1;"
         offset="0"
         id="stop9" /><stop
         style="stop-color:#3cadef;stop-opacity:1;"
         offset="1"
         id="stop10" /></linearGradient><linearGradient
       id="linearGradient7"><stop
         style="stop-color:#a241f6;stop-opacity:1;"
         offset="0"
         id="stop7" /><stop
         style="stop-color:#3cadef;stop-opacity:1;"
         offset="1"
         id="stop8" /></linearGradient><linearGradient
       xlink:href="#linearGradient7"
       id="linearGradient8"
       x1="62.124405"
       y1="75.160835"
       x2="224.85817"
       y2="204.25201"
       gradientUnits="userSpaceOnUse" /><linearGradient
       xlink:href="#linearGradient9"
       id="linearGradient10"
       x1="65.085854"
       y1="99.372345"
       x2="165.10001"
       y2="189.54909"
       gradientUnits="userSpaceOnUse" /></defs><g
     id="layer2"
     transform="translate(-39.197575,-4.2281237)"><g
       id="g7"
       style="display:inline"
       transform="matrix(1.1415029,0,0,1.1415029,-30.863365,-25.261556)"><path
         id="path4"
         style="display:inline;fill:url(#linearGradient8);stroke-width:0.1;paint-order:fill markers stroke"
         d="m 68.507446,25.834082 c -7.741715,0 -7.119462,7.08949 -7.119462,7.08949 v 74.116408 c 0,1.32342 1.471745,1.37304 1.471745,1.37304 2.627235,0 2.032165,-10.619246 22.846151,-30.772281 V 54.232865 c 0,0 -0.429196,-4.61055 4.911328,-4.610571 l 58.245022,-5.17e-4 c 24.18262,0 43.72608,13.825669 44.16992,38.150643 0,2.8e-5 0.0212,-2.7e-5 0.0212,0 0,0.14192 -0.009,0.27891 -0.0103,0.42013 0.001,0.141383 0.0103,0.278044 0.0103,0.420129 0,2.7e-5 -0.0212,-2.9e-5 -0.0212,0 -0.44384,24.324991 -19.9873,38.150641 -44.16992,38.150641 h -0.0377 c -15.49414,0 -23.33511,12.12104 -25.21654,19.14263 -0.65913,2.45989 1.06003,2.47699 2.32236,2.47699 l 26.8433,0.0215 c 25.68004,0 46.43331,13.82567 46.90463,38.15064 0,3e-5 0.0227,-2e-5 0.0227,0 0,0.14192 -0.01,0.27891 -0.0108,0.42013 8e-4,0.14138 0.0108,0.27856 0.0108,0.42065 0,2e-5 -0.0227,-3e-5 -0.0227,0 -0.47132,24.32497 -21.22459,38.15012 -46.90463,38.15012 h -3.33623 c -34.38268,26.35819 -42.48319,19.13761 -42.48319,23.22753 0,1.52854 2.26928,1.4366 2.83755,1.4366 h 47.55213 c 28.63863,0 67.14009,-22.15415 67.14009,-64.30047 0,-33.0044 -29.92495,-51.8143 -29.9284,-51.81647 0.003,-0.003 22.44514,-17.53915 22.44514,-48.309716 0,-39.294222 -36.73507,-59.949312 -64.05966,-59.949312 z" /><path
         style="fill:url(#linearGradient10);stroke-width:0.1;paint-order:fill markers stroke"
         d="m 136.575,94.293 c 0,0 -47.333707,3.357024 -47.333707,53.32 0,52.09102 47.333707,55.93947 47.333707,55.93947 h 14.7793 c 1.3158,0 1.97361,1.21225 1.77663,1.94741 0,7.35719 -12.53496,18.81943 -21.10393,18.81943 -35.534102,0 -67.204084,-33.05006 -66.939501,-76.70631 C 65.352083,103.95675 99.112155,70.974 132.027,70.974 h 17.17 c 0,0 15.903,-0.844946 15.903,12.369749 0,6.477739 -5.17203,10.949251 -15.903,10.949251 z"
         id="path7" /></g></g></svg>
