<?xml version="1.0" encoding="UTF-8" standalone="no"?>
<!-- Created with Inkscape (http://www.inkscape.org/) -->

<svg
   width="1232.3146"
   height="175.94467"
   viewBox="0 0 326.04989 46.552028"
   version="1.1"
   id="svg1"
   xml:space="preserve"
   sodipodi:docname="BrandCraft_SVG.svg"
   inkscape:export-filename="BrandCraft-NAME.svg"
   inkscape:export-xdpi="96"
   inkscape:export-ydpi="96"
   inkscape:version="1.3.1 (91b66b0783, 2023-11-16)"
   xmlns:inkscape="http://www.inkscape.org/namespaces/inkscape"
   xmlns:sodipodi="http://sodipodi.sourceforge.net/DTD/sodipodi-0.dtd"
   xmlns:xlink="http://www.w3.org/1999/xlink"
   xmlns="http://www.w3.org/2000/svg"
   xmlns:svg="http://www.w3.org/2000/svg"><sodipodi:namedview
     id="namedview1"
     pagecolor="#505050"
     bordercolor="#ffffff"
     borderopacity="1"
     inkscape:showpageshadow="0"
     inkscape:pageopacity="0"
     inkscape:pagecheckerboard="1"
     inkscape:deskcolor="#d1d1d1"
     inkscape:document-units="mm"
     inkscape:zoom="0.75305448"
     inkscape:cx="638.73201"
     inkscape:cy="137.44026"
     inkscape:window-width="1600"
     inkscape:window-height="837"
     inkscape:window-x="-8"
     inkscape:window-y="116"
     inkscape:window-maximized="1"
     inkscape:current-layer="layer1" /><defs
     id="defs1"><linearGradient
       id="linearGradient7"
       inkscape:collect="always"><stop
         style="stop-color:#613fee;stop-opacity:1;"
         offset="0"
         id="stop9" /><stop
         style="stop-color:#a95cf9;stop-opacity:1;"
         offset="0.5"
         id="stop10" /><stop
         style="stop-color:#8adcff;stop-opacity:1;"
         offset="1"
         id="stop8" /></linearGradient><rect
       x="166.425"
       y="157.93393"
       width="624.76868"
       height="92.409515"
       id="rect2" /><linearGradient
       inkscape:collect="always"
       xlink:href="#linearGradient7"
       id="linearGradient9"
       x1="254.39551"
       y1="198.04665"
       x2="710.06738"
       y2="198.04665"
       gradientUnits="userSpaceOnUse" /></defs><g
     inkscape:label="Layer 1"
     inkscape:groupmode="layer"
     id="layer1"
     transform="translate(-5.7821923,-72.004936)"><path
       d="m 293.09082,213.56227 q 0,9 -6.75,13.92187 -6.75,4.92188 -18.75,4.92188 h -33.04687 v -66.04688 h 30.23437 q 12.09375,0 18.28125,4.21875 6.23438,4.17188 6.23438,12.375 0,5.625 -3.14063,9.51563 -3.09375,3.84375 -9.46875,5.20312 8.01563,0.9375 12.1875,5.0625 4.21875,4.07813 4.21875,10.82813 z m -17.71875,-28.73438 q 0,-4.45312 -2.85937,-6.32812 -2.8125,-1.875 -8.39063,-1.875 h -15.75 v 16.35937 h 15.84375 q 5.85938,0 8.48438,-2.01562 2.67187,-2.0625 2.67187,-6.14063 z m 3.84375,27.65625 q 0,-9.28125 -13.3125,-9.28125 h -17.53125 v 18.9375 h 18.04688 q 6.65625,0 9.70312,-2.39062 3.09375,-2.4375 3.09375,-7.26563 z m 24.9375,19.92188 v -38.8125 q 0,-4.17188 -0.14062,-6.9375 -0.0937,-2.8125 -0.23438,-4.96875 h 12.5625 q 0.14063,0.84375 0.375,5.15625 0.23438,4.26562 0.23438,5.67187 h 0.1875 q 1.92187,-5.34375 3.42187,-7.5 1.5,-2.20312 3.5625,-3.23437 2.0625,-1.07813 5.15625,-1.07813 2.53125,0 4.07813,0.70313 v 11.01562 q -3.1875,-0.70312 -5.625,-0.70312 -4.92188,0 -7.6875,3.98437 -2.71875,3.98438 -2.71875,11.8125 v 24.89063 z m 49.07813,0.9375 q -7.35938,0 -11.48438,-3.98438 -4.125,-4.03125 -4.125,-11.29687 0,-7.875 5.10938,-12 5.15625,-4.125 14.90625,-4.21875 l 10.92187,-0.1875 v -2.57813 q 0,-4.96875 -1.73437,-7.35937 -1.73438,-2.4375 -5.67188,-2.4375 -3.65625,0 -5.39062,1.6875 -1.6875,1.64062 -2.10938,5.48437 l -13.73437,-0.65625 q 1.26562,-7.40625 6.75,-11.20312 5.53125,-3.84375 15.04687,-3.84375 9.60938,0 14.8125,4.73437 5.20313,4.73438 5.20313,13.45313 v 18.46875 q 0,4.26562 0.9375,5.90625 0.98437,1.59375 3.23437,1.59375 1.5,0 2.90625,-0.28125 v 7.125 q -1.17187,0.28125 -2.10937,0.51562 -0.9375,0.23438 -1.875,0.375 -0.9375,0.14063 -2.01563,0.23438 -1.03125,0.0937 -2.4375,0.0937 -4.96875,0 -7.35937,-2.4375 -2.34375,-2.4375 -2.8125,-7.17188 h -0.28125 q -5.53125,9.98438 -16.6875,9.98438 z m 15.32812,-24.42188 -6.75,0.0937 q -4.59375,0.1875 -6.51562,1.03125 -1.92188,0.79688 -2.95313,2.48438 -0.98437,1.6875 -0.98437,4.5 0,3.60937 1.64062,5.39062 1.6875,1.73438 4.45313,1.73438 3.09375,0 5.625,-1.6875 2.57812,-1.6875 4.03125,-4.64063 1.45312,-3 1.45312,-6.32812 z m 59.20313,23.48438 v -28.45313 q 0,-13.35937 -9.04688,-13.35937 -4.78125,0 -7.73437,4.125 -2.90625,4.07812 -2.90625,10.5 v 27.1875 h -13.17188 v -39.375 q 0,-4.07813 -0.14062,-6.65625 -0.0937,-2.625 -0.23438,-4.6875 h 12.5625 q 0.14063,0.89062 0.375,4.78125 0.23438,3.84375 0.23438,5.29687 h 0.1875 q 2.67187,-5.8125 6.70312,-8.4375 4.03125,-2.625 9.60938,-2.625 8.0625,0 12.375,4.96875 4.3125,4.96875 4.3125,14.53125 v 32.20313 z m 58.64062,0 q -0.1875,-0.70313 -0.46875,-3.51563 -0.23437,-2.85937 -0.23437,-4.73437 h -0.1875 q -4.26563,9.1875 -16.21875,9.1875 -8.85938,0 -13.6875,-6.89063 -4.82813,-6.9375 -4.82813,-19.35937 0,-12.60938 5.0625,-19.45313 5.10938,-6.89062 14.4375,-6.89062 5.39063,0 9.28125,2.25 3.9375,2.25 6.04688,6.70312 h 0.0937 l -0.0937,-8.34375 v -18.51562 h 13.17187 v 58.5 q 0,4.6875 0.375,11.0625 z m -0.60937,-25.64063 q 0,-8.20312 -2.76563,-12.60937 -2.71875,-4.45313 -8.0625,-4.45313 -5.29687,0 -7.875,4.3125 -2.57812,4.26563 -2.57812,13.07813 0,17.25 10.35937,17.25 5.20313,0 8.0625,-4.54688 2.85938,-4.59375 2.85938,-13.03125 z m 56.95312,15.70313 q 12.51563,0 17.39063,-12.5625 l 12.04687,4.54687 q -3.89062,9.5625 -11.4375,14.25 -7.5,4.64063 -18,4.64063 -15.9375,0 -24.65625,-9 -8.67187,-9.04688 -8.67187,-25.26563 0,-16.26562 8.39062,-24.98437 8.39063,-8.71875 24.32813,-8.71875 11.625,0 18.9375,4.6875 7.3125,4.64062 10.26562,13.6875 l -12.1875,3.32812 q -1.54687,-4.96875 -6.09375,-7.875 -4.5,-2.95312 -10.64062,-2.95312 -9.375,0 -14.25,5.8125 -4.82813,5.8125 -4.82813,17.01562 0,11.39063 4.96875,17.39063 5.01563,6 14.4375,6 z m 38.76563,9.9375 v -38.8125 q 0,-4.17188 -0.14063,-6.9375 -0.0937,-2.8125 -0.23437,-4.96875 h 12.5625 q 0.14062,0.84375 0.375,5.15625 0.23437,4.26562 0.23437,5.67187 h 0.1875 q 1.92188,-5.34375 3.42188,-7.5 1.5,-2.20312 3.5625,-3.23437 2.0625,-1.07813 5.15625,-1.07813 2.53125,0 4.07812,0.70313 v 11.01562 q -3.1875,-0.70312 -5.625,-0.70312 -4.92187,0 -7.6875,3.98437 -2.71875,3.98438 -2.71875,11.8125 v 24.89063 z m 49.07812,0.9375 q -7.35937,0 -11.48437,-3.98438 -4.125,-4.03125 -4.125,-11.29687 0,-7.875 5.10937,-12 5.15625,-4.125 14.90625,-4.21875 l 10.92188,-0.1875 v -2.57813 q 0,-4.96875 -1.73438,-7.35937 -1.73437,-2.4375 -5.67187,-2.4375 -3.65625,0 -5.39063,1.6875 -1.6875,1.64062 -2.10937,5.48437 l -13.73438,-0.65625 q 1.26563,-7.40625 6.75,-11.20312 5.53125,-3.84375 15.04688,-3.84375 9.60937,0 14.8125,4.73437 5.20312,4.73438 5.20312,13.45313 v 18.46875 q 0,4.26562 0.9375,5.90625 0.98438,1.59375 3.23438,1.59375 1.5,0 2.90625,-0.28125 v 7.125 q -1.17188,0.28125 -2.10938,0.51562 -0.9375,0.23438 -1.875,0.375 -0.9375,0.14063 -2.01562,0.23438 -1.03125,0.0937 -2.4375,0.0937 -4.96875,0 -7.35938,-2.4375 -2.34375,-2.4375 -2.8125,-7.17188 h -0.28125 q -5.53125,9.98438 -16.6875,9.98438 z m 15.32813,-24.42188 -6.75,0.0937 q -4.59375,0.1875 -6.51563,1.03125 -1.92187,0.79688 -2.95312,2.48438 -0.98438,1.6875 -0.98438,4.5 0,3.60937 1.64063,5.39062 1.6875,1.73438 4.45312,1.73438 3.09375,0 5.625,-1.6875 2.57813,-1.6875 4.03125,-4.64063 1.45313,-3 1.45313,-6.32812 z m 41.8125,-18.32812 v 41.8125 h -13.125 v -41.8125 h -7.40625 v -8.90625 h 7.40625 v -5.29688 q 0,-6.89062 3.65625,-10.21875 3.65625,-3.32812 11.10937,-3.32812 3.70313,0 8.34375,0.75 v 8.48437 q -1.92187,-0.42187 -3.84375,-0.42187 -3.375,0 -4.78125,1.35937 -1.35937,1.3125 -1.35937,4.6875 v 3.98438 h 9.98437 v 8.90625 z m 29.48437,42.65625 q -5.8125,0 -8.95312,-3.14063 -3.14063,-3.1875 -3.14063,-9.60937 v -29.90625 h -6.42187 v -8.90625 h 7.07812 l 4.125,-11.90625 h 8.25 v 11.90625 h 9.60938 v 8.90625 h -9.60938 v 26.34375 q 0,3.70312 1.40625,5.48437 1.40625,1.73438 4.35938,1.73438 1.54687,0 4.40625,-0.65625 v 8.15625 q -4.875,1.59375 -11.10938,1.59375 z"
       id="text1"
       style="font-weight:bold;font-size:96px;line-height:1;font-family:Arimo;-inkscape-font-specification:'Arimo Bold';text-align:center;letter-spacing:0px;white-space:pre;fill:url(#linearGradient9);stroke-width:0.377953;paint-order:fill markers stroke"
       transform="matrix(0.66031247,0,0,0.66031247,-149.0901,-35.522668)"
       aria-label="BrandCraft"
       inkscape:label="Brandcraft" /></g></svg>
